<svg width="78" height="76" viewBox="0 0 78 76" fill="none" xmlns="http://www.w3.org/2000/svg">
<path d="M4.498 71L4.225 69.557H2.171L1.898 71H0.13L1.885 61.9H4.576L6.24 71H4.498ZM3.172 63.59L2.665 66.619L2.379 68.166H4.004L3.705 66.619L3.198 63.59H3.172ZM8.03705 61.9H11.495C12.041 62.082 12.5047 62.42 12.886 62.914C13.276 63.3993 13.471 63.9973 13.471 64.708C13.471 65.8693 13.0117 66.723 12.093 67.269L13.406 71H11.586L10.481 67.685H9.79205V71H8.03705V61.9ZM9.79205 63.46V66.229H10.91C11.0574 66.1943 11.2177 66.047 11.391 65.787C11.573 65.5183 11.664 65.2063 11.664 64.851C11.664 64.4957 11.586 64.1837 11.43 63.915C11.2827 63.6463 11.1354 63.4947 10.988 63.46H9.79205ZM15.4501 71V61.9H20.1171V63.46H17.2311V65.631H19.8051V67.139H17.2311V69.492H20.1691V71H15.4501ZM26.2717 71L23.8407 65.969L23.7757 65.995L23.8537 67.529V71H22.2157V61.9H23.5287L25.9207 67.126L25.9857 67.1L25.8427 65.501V61.9H27.4807V71H26.2717ZM33.6424 71L33.3694 69.557H31.3154L31.0424 71H29.2744L31.0294 61.9H33.7204L35.3844 71H33.6424ZM32.3164 63.59L31.8094 66.619L31.5234 68.166H33.1484L32.8494 66.619L32.3424 63.59H32.3164ZM41.1355 61.9H44.2555V63.46H41.7595L41.7205 63.538L43.8005 67.334C44.2251 68.0967 44.4375 68.6773 44.4375 69.076C44.4375 69.9513 44.1471 70.5927 43.5665 71H40.1215V69.492H42.8125L42.8515 69.414L40.5115 65.215C40.1735 64.6083 40.0045 64.1143 40.0045 63.733C40.0045 62.8317 40.3815 62.2207 41.1355 61.9ZM48.1385 63.46V66.71H49.2955C49.7722 66.32 50.0105 65.748 50.0105 64.994C50.0105 64.6733 49.9455 64.37 49.8155 64.084C49.6942 63.798 49.5468 63.59 49.3735 63.46H48.1385ZM46.3835 71V61.9H49.9065C50.4958 62.16 50.9595 62.5587 51.2975 63.096C51.6442 63.6333 51.8175 64.2617 51.8175 64.981C51.8175 65.6917 51.6398 66.3503 51.2845 66.957C50.9292 67.5637 50.4048 67.9927 49.7115 68.244H48.1385V71H46.3835ZM57.9203 61.9C58.5269 62.394 58.9776 63.057 59.2723 63.889C59.5669 64.721 59.7143 65.579 59.7143 66.463C59.7143 67.3383 59.5713 68.1703 59.2853 68.959C58.9993 69.7477 58.5443 70.428 57.9203 71H55.2423C54.6183 70.428 54.1633 69.7477 53.8773 68.959C53.5913 68.1703 53.4483 67.3383 53.4483 66.463C53.4483 65.579 53.5956 64.721 53.8903 63.889C54.1849 63.057 54.6356 62.394 55.2423 61.9H57.9203ZM56.1133 69.492H57.0493C57.2659 69.2407 57.4479 68.8333 57.5953 68.27C57.7513 67.698 57.8293 67.0957 57.8293 66.463C57.8293 65.8303 57.7556 65.2367 57.6083 64.682C57.4609 64.1187 57.2789 63.7113 57.0623 63.46H56.1133C55.8966 63.7113 55.7103 64.1187 55.5543 64.682C55.4069 65.2367 55.3333 65.8303 55.3333 66.463C55.3333 67.0957 55.4069 67.698 55.5543 68.27C55.7103 68.8333 55.8966 69.2407 56.1133 69.492ZM61.7682 61.9H65.2262C65.7722 62.082 66.2358 62.42 66.6172 62.914C67.0072 63.3993 67.2022 63.9973 67.2022 64.708C67.2022 65.8693 66.7428 66.723 65.8242 67.269L67.1372 71H65.3172L64.2122 67.685H63.5232V71H61.7682V61.9ZM63.5232 63.46V66.229H64.6412C64.7885 66.1943 64.9488 66.047 65.1222 65.787C65.3042 65.5183 65.3952 65.2063 65.3952 64.851C65.3952 64.4957 65.3172 64.1837 65.1612 63.915C65.0138 63.6463 64.8665 63.4947 64.7192 63.46H63.5232ZM70.5233 63.46H68.5603V61.9H74.2543V63.46H72.2913V71H70.5233V63.46Z" fill="#358F66"/>
<g clip-path="url(#clip0_5089_92)">
<path d="M34.5001 20.4167C25.0701 20.4167 17.4167 28.0701 17.4167 37.5001C17.4167 46.9301 25.0701 54.5834 34.5001 54.5834C43.9301 54.5834 51.5834 46.9301 51.5834 37.5001C51.5834 28.0701 43.9301 20.4167 34.5001 20.4167ZM36.2084 26.0542L38.5147 24.4313C41.6238 25.388 44.2717 27.438 45.9972 30.1372L45.3309 32.4263L43.0247 33.2122L36.2084 28.4459V26.0542ZM30.4855 24.4313L32.7917 26.0542V28.4459L25.9755 33.2122L23.6692 32.4263L23.003 30.1372C24.7284 27.4551 27.3763 25.4051 30.4855 24.4313ZM26.0951 46.2297L24.1476 46.4005C22.0805 44.0088 20.8334 40.8997 20.8334 37.5001C20.8334 37.2951 20.8505 37.1072 20.8676 36.9022L22.5759 35.6551L24.9334 36.4751L27.4276 43.8892L26.0951 46.2297ZM38.7709 50.4663C37.4213 50.9105 35.9863 51.1667 34.5001 51.1667C33.0138 51.1667 31.5788 50.9105 30.2292 50.4663L29.0505 47.9209L30.1438 46.0417H38.8734L39.9667 47.938L38.7709 50.4663ZM38.378 42.6251H30.6222L28.3159 35.7576L34.5001 31.4184L40.7013 35.7576L38.378 42.6251ZM44.8526 46.4005L42.9051 46.2297L41.5555 43.8892L44.0497 36.4751L46.4242 35.6722L48.1326 36.9192C48.1497 37.1072 48.1667 37.2951 48.1667 37.5001C48.1667 40.8997 46.9197 44.0088 44.8526 46.4005Z" fill="#358F66" fill-opacity="0.38"/>
</g>
<g clip-path="url(#clip1_5089_92)">
<path d="M34.5 38.3125C35.1112 38.3125 35.6512 38.475 36.09 38.6875C36.495 38.8875 36.75 39.3375 36.75 39.825V40.5H32.25V39.8292C32.25 39.3375 32.505 38.8875 32.91 38.6917C33.3488 38.475 33.8888 38.3125 34.5 38.3125ZM31.5 38.4167C31.9125 38.4167 32.25 38.0417 32.25 37.5833C32.25 37.125 31.9125 36.75 31.5 36.75C31.0875 36.75 30.75 37.125 30.75 37.5833C30.75 38.0417 31.0875 38.4167 31.5 38.4167ZM31.9238 38.875C31.785 38.85 31.6462 38.8333 31.5 38.8333C31.1287 38.8333 30.7763 38.9208 30.4575 39.075C30.18 39.2083 30 39.5083 30 39.8458V40.5H31.6875V39.8292C31.6875 39.4833 31.7738 39.1583 31.9238 38.875ZM37.5 38.4167C37.9125 38.4167 38.25 38.0417 38.25 37.5833C38.25 37.125 37.9125 36.75 37.5 36.75C37.0875 36.75 36.75 37.125 36.75 37.5833C36.75 38.0417 37.0875 38.4167 37.5 38.4167ZM39 39.8458C39 39.5083 38.82 39.2083 38.5425 39.075C38.2238 38.9208 37.8713 38.8333 37.5 38.8333C37.3538 38.8333 37.215 38.85 37.0763 38.875C37.2263 39.1583 37.3125 39.4833 37.3125 39.8292V40.5H39V39.8458ZM34.5 35.5C35.1225 35.5 35.625 36.0583 35.625 36.75C35.625 37.4417 35.1225 38 34.5 38C33.8775 38 33.375 37.4417 33.375 36.75C33.375 36.0583 33.8775 35.5 34.5 35.5Z" fill="#358F66" fill-opacity="0.38"/>
</g>
<path d="M23.7847 10.613L18 5.59164L20.3016 24C20.3016 24 26 19 34 19C42.0305 19 47 23 47 23L49 9.31713L46.1818 11.9088C46.6117 15.4364 44.3945 17.4846 42.0287 16.9301C39.4576 16.3274 37.7905 13.1006 41.1388 9.64109C38.5727 9.26491 37.6887 8.50174 36.689 6.56351L34.9091 14.3384V3L28.6794 9.64109C28.6794 9.64109 33.8971 15.5693 27.9378 16.7681C22.3014 17.902 23.7847 10.613 23.7847 10.613Z" fill="#358F66" fill-opacity="0.38"/>
<g clip-path="url(#clip2_5089_92)">
<path d="M36.5001 19.4167C27.0701 19.4167 19.4167 27.0701 19.4167 36.5001C19.4167 45.9301 27.0701 53.5834 36.5001 53.5834C45.9301 53.5834 53.5834 45.9301 53.5834 36.5001C53.5834 27.0701 45.9301 19.4167 36.5001 19.4167ZM38.2084 25.0542L40.5147 23.4313C43.6238 24.388 46.2717 26.438 47.9972 29.1372L47.3309 31.4263L45.0247 32.2122L38.2084 27.4459V25.0542ZM32.4855 23.4313L34.7917 25.0542V27.4459L27.9755 32.2122L25.6692 31.4263L25.003 29.1372C26.7284 26.4551 29.3763 24.4051 32.4855 23.4313ZM28.0951 45.2297L26.1476 45.4005C24.0805 43.0088 22.8334 39.8997 22.8334 36.5001C22.8334 36.2951 22.8505 36.1072 22.8676 35.9022L24.5759 34.6551L26.9334 35.4751L29.4276 42.8892L28.0951 45.2297ZM40.7709 49.4663C39.4213 49.9105 37.9863 50.1667 36.5001 50.1667C35.0138 50.1667 33.5788 49.9105 32.2292 49.4663L31.0505 46.9209L32.1438 45.0417H40.8734L41.9667 46.938L40.7709 49.4663ZM40.378 41.6251H32.6222L30.3159 34.7576L36.5001 30.4184L42.7013 34.7576L40.378 41.6251ZM46.8526 45.4005L44.9051 45.2297L43.5555 42.8892L46.0497 35.4751L48.4242 34.6722L50.1326 35.9192C50.1497 36.1072 50.1667 36.2951 50.1667 36.5001C50.1667 39.8997 48.9197 43.0088 46.8526 45.4005Z" fill="#358F66"/>
</g>
<g clip-path="url(#clip3_5089_92)">
<path d="M36.5 37.3125C37.1112 37.3125 37.6512 37.475 38.09 37.6875C38.495 37.8875 38.75 38.3375 38.75 38.825V39.5H34.25V38.8292C34.25 38.3375 34.505 37.8875 34.91 37.6917C35.3488 37.475 35.8888 37.3125 36.5 37.3125ZM33.5 37.4167C33.9125 37.4167 34.25 37.0417 34.25 36.5833C34.25 36.125 33.9125 35.75 33.5 35.75C33.0875 35.75 32.75 36.125 32.75 36.5833C32.75 37.0417 33.0875 37.4167 33.5 37.4167ZM33.9238 37.875C33.785 37.85 33.6462 37.8333 33.5 37.8333C33.1287 37.8333 32.7763 37.9208 32.4575 38.075C32.18 38.2083 32 38.5083 32 38.8458V39.5H33.6875V38.8292C33.6875 38.4833 33.7738 38.1583 33.9238 37.875ZM39.5 37.4167C39.9125 37.4167 40.25 37.0417 40.25 36.5833C40.25 36.125 39.9125 35.75 39.5 35.75C39.0875 35.75 38.75 36.125 38.75 36.5833C38.75 37.0417 39.0875 37.4167 39.5 37.4167ZM41 38.8458C41 38.5083 40.82 38.2083 40.5425 38.075C40.2238 37.9208 39.8713 37.8333 39.5 37.8333C39.3538 37.8333 39.215 37.85 39.0763 37.875C39.2263 38.1583 39.3125 38.4833 39.3125 38.8292V39.5H41V38.8458ZM36.5 34.5C37.1225 34.5 37.625 35.0583 37.625 35.75C37.625 36.4417 37.1225 37 36.5 37C35.8775 37 35.375 36.4417 35.375 35.75C35.375 35.0583 35.8775 34.5 36.5 34.5Z" fill="#358F66"/>
</g>
<path d="M25.7847 9.61295L20 4.59164L22.3016 23C22.3016 23 28 18 36 18C44.0305 18 49 22 49 22L51 8.31713L48.1818 10.9088C48.6117 14.4364 46.3945 16.4846 44.0287 15.9301C41.4576 15.3274 39.7905 12.1006 43.1388 8.64109C40.5727 8.26491 39.6887 7.50174 38.689 5.56351L36.9091 13.3384V2L30.6794 8.64109C30.6794 8.64109 35.8971 14.5693 29.9378 15.7681C24.3014 16.902 25.7847 9.61295 25.7847 9.61295Z" fill="#358F66" stroke="#358F66"/>
<defs>
<clipPath id="clip0_5089_92">
<rect width="41" height="41" fill="white" transform="translate(14 17)"/>
</clipPath>
<clipPath id="clip1_5089_92">
<rect width="9" height="10" fill="white" transform="translate(30 33)"/>
</clipPath>
<clipPath id="clip2_5089_92">
<rect width="41" height="41" fill="white" transform="translate(16 16)"/>
</clipPath>
<clipPath id="clip3_5089_92">
<rect width="9" height="10" fill="white" transform="translate(32 32)"/>
</clipPath>
</defs>
</svg>
