<svg width="108" height="106" viewBox="0 0 108 106" fill="none" xmlns="http://www.w3.org/2000/svg">
<path d="M2.47559 99V77.6719H8.49609C10.3516 77.6719 11.9922 78.082 13.418 78.9023C14.8438 79.7227 15.9424 80.8896 16.7139 82.4033C17.4951 83.917 17.8906 85.6553 17.9004 87.6182V88.9805C17.9004 90.9922 17.5098 92.7549 16.7285 94.2686C15.957 95.7822 14.8486 96.9443 13.4033 97.7549C11.9678 98.5654 10.293 98.9805 8.37891 99H2.47559ZM5.28809 79.9863V96.7002H8.24707C10.415 96.7002 12.0996 96.0264 13.3008 94.6787C14.5117 93.3311 15.1172 91.4121 15.1172 88.9219V87.6768C15.1172 85.2549 14.5459 83.375 13.4033 82.0371C12.2705 80.6895 10.6592 80.0059 8.56934 79.9863H5.28809ZM28.3154 99.293C26.167 99.293 24.4189 98.5898 23.0713 97.1836C21.7236 95.7676 21.0498 93.8779 21.0498 91.5146V91.0166C21.0498 89.4443 21.3477 88.043 21.9434 86.8125C22.5488 85.5723 23.3887 84.6055 24.4629 83.9121C25.5469 83.209 26.7188 82.8574 27.9785 82.8574C30.0391 82.8574 31.6406 83.5361 32.7832 84.8936C33.9258 86.251 34.4971 88.1943 34.4971 90.7236V91.8516H23.7598C23.7988 93.4141 24.2529 94.6787 25.1221 95.6455C26.001 96.6025 27.1143 97.0811 28.4619 97.0811C29.4189 97.0811 30.2295 96.8857 30.8936 96.4951C31.5576 96.1045 32.1387 95.5869 32.6367 94.9424L34.292 96.2314C32.9639 98.2725 30.9717 99.293 28.3154 99.293ZM27.9785 85.084C26.8848 85.084 25.9668 85.4844 25.2246 86.2852C24.4824 87.0762 24.0234 88.1895 23.8477 89.625H31.7871V89.4199C31.709 88.043 31.3379 86.9785 30.6738 86.2266C30.0098 85.4648 29.1113 85.084 27.9785 85.084ZM46.875 94.7959C46.875 94.0635 46.5967 93.4971 46.04 93.0967C45.4932 92.6865 44.5312 92.335 43.1543 92.042C41.7871 91.749 40.6982 91.3975 39.8877 90.9873C39.0869 90.5771 38.4912 90.0889 38.1006 89.5225C37.7197 88.9561 37.5293 88.2822 37.5293 87.501C37.5293 86.2021 38.0762 85.1035 39.1699 84.2051C40.2734 83.3066 41.6797 82.8574 43.3887 82.8574C45.1855 82.8574 46.6406 83.3213 47.7539 84.249C48.877 85.1768 49.4385 86.3633 49.4385 87.8086H46.7139C46.7139 87.0664 46.3965 86.4268 45.7617 85.8896C45.1367 85.3525 44.3457 85.084 43.3887 85.084C42.4023 85.084 41.6309 85.2988 41.0742 85.7285C40.5176 86.1582 40.2393 86.7197 40.2393 87.4131C40.2393 88.0674 40.498 88.5605 41.0156 88.8926C41.5332 89.2246 42.4658 89.542 43.8135 89.8447C45.1709 90.1475 46.2695 90.5088 47.1094 90.9287C47.9492 91.3486 48.5693 91.8564 48.9697 92.4521C49.3799 93.0381 49.585 93.7559 49.585 94.6055C49.585 96.0215 49.0186 97.1592 47.8857 98.0186C46.7529 98.8682 45.2832 99.293 43.4766 99.293C42.207 99.293 41.084 99.0684 40.1074 98.6191C39.1309 98.1699 38.3643 97.5449 37.8076 96.7441C37.2607 95.9336 36.9873 95.0596 36.9873 94.1221H39.6973C39.7461 95.0303 40.1074 95.7529 40.7812 96.29C41.4648 96.8174 42.3633 97.0811 43.4766 97.0811C44.502 97.0811 45.3223 96.876 45.9375 96.4658C46.5625 96.0459 46.875 95.4893 46.875 94.7959ZM62.9004 99C62.7441 98.6875 62.6172 98.1309 62.5195 97.3301C61.2598 98.6387 59.7559 99.293 58.0078 99.293C56.4453 99.293 55.1611 98.8535 54.1553 97.9746C53.1592 97.0859 52.6611 95.9629 52.6611 94.6055C52.6611 92.9551 53.2861 91.6758 54.5361 90.7676C55.7959 89.8496 57.5635 89.3906 59.8389 89.3906H62.4756V88.1455C62.4756 87.1982 62.1924 86.4463 61.626 85.8896C61.0596 85.3232 60.2246 85.04 59.1211 85.04C58.1543 85.04 57.3438 85.2842 56.6895 85.7725C56.0352 86.2607 55.708 86.8516 55.708 87.5449H52.9834C52.9834 86.7539 53.2617 85.9922 53.8184 85.2598C54.3848 84.5176 55.1465 83.9316 56.1035 83.502C57.0703 83.0723 58.1299 82.8574 59.2822 82.8574C61.1084 82.8574 62.5391 83.3164 63.5742 84.2344C64.6094 85.1426 65.1465 86.3975 65.1855 87.999V95.2939C65.1855 96.749 65.3711 97.9062 65.7422 98.7656V99H62.9004ZM58.4033 96.9346C59.2529 96.9346 60.0586 96.7148 60.8203 96.2754C61.582 95.8359 62.1338 95.2646 62.4756 94.5615V91.3096H60.3516C57.0312 91.3096 55.3711 92.2812 55.3711 94.2246C55.3711 95.0742 55.6543 95.7383 56.2207 96.2168C56.7871 96.6953 57.5146 96.9346 58.4033 96.9346ZM69.4922 97.5791C69.4922 97.1104 69.6289 96.7197 69.9023 96.4072C70.1855 96.0947 70.6055 95.9385 71.1621 95.9385C71.7188 95.9385 72.1387 96.0947 72.4219 96.4072C72.7148 96.7197 72.8613 97.1104 72.8613 97.5791C72.8613 98.0283 72.7148 98.4043 72.4219 98.707C72.1387 99.0098 71.7188 99.1611 71.1621 99.1611C70.6055 99.1611 70.1855 99.0098 69.9023 98.707C69.6289 98.4043 69.4922 98.0283 69.4922 97.5791Z" fill="black"/>
<path d="M81.7676 91.6611L80.0684 93.4336V99H77.3584V76.5H80.0684V90.1084L81.5186 88.3652L86.4551 83.1504H89.751L83.584 89.7715L90.4688 99H87.29L81.7676 91.6611ZM102.334 97.4326C101.279 98.6729 99.7314 99.293 97.6904 99.293C96.001 99.293 94.7119 98.8047 93.8232 97.8281C92.9443 96.8418 92.5 95.3867 92.4902 93.4629V83.1504H95.2002V93.3896C95.2002 95.792 96.1768 96.9932 98.1299 96.9932C100.2 96.9932 101.577 96.2217 102.261 94.6787V83.1504H104.971V99H102.393L102.334 97.4326Z" fill="#29A867"/>
<path d="M29.0213 20.4678H27.0213V22.4678V60.5529C27.0213 64.9712 30.603 68.5529 35.0213 68.5529H74.9787C79.397 68.5529 82.9787 64.9711 82.9787 60.5529V22.4678V20.4678H80.9787H29.0213Z" stroke="black" stroke-width="4"/>
<rect x="47.8404" y="38.1382" width="14.3191" height="22.1915" stroke="#29A867" stroke-width="3"/>
<path d="M81.4286 2H28.5714L18 25.617H92L81.4286 2Z" fill="white" stroke="black" stroke-width="4"/>
<circle cx="57.3617" cy="49.2346" r="1.57447" fill="#258C67"/>
</svg>
