<svg width="150" height="150" viewBox="0 0 150 150" fill="none" xmlns="http://www.w3.org/2000/svg">
<path d="M104.292 32.7712C102.752 32.7712 101.504 31.5231 101.504 29.9836V21.1562C101.504 12.5645 94.5151 5.5752 85.9235 5.5752H64.078C55.4864 5.5752 48.4971 12.5645 48.4971 21.1562V29.9836C48.4971 31.5234 47.249 32.7712 45.7095 32.7712C44.1696 32.7712 42.9219 31.5231 42.9219 29.9836V21.1562C42.9216 9.49101 52.4123 0 64.0777 0H85.9232C97.589 0 107.079 9.49101 107.079 21.1562V29.9836C107.08 31.5231 105.832 32.7712 104.292 32.7712Z" fill="url(#paint0_linear_5335_1467)"/>
<path d="M128.3 16.3865L128.159 16.4553C123.392 18.7818 117.813 18.7552 113.069 16.3827C108.263 14.0375 102.646 14.0375 97.8443 16.3827L97.8404 16.3865C93.0346 18.7317 87.4181 18.7317 82.6122 16.3865L82.6084 16.3827C77.8061 14.0375 72.1899 14.0375 67.384 16.3827L67.3802 16.3865C62.5778 18.7317 56.9578 18.7317 52.1558 16.3865H52.152C49.7508 15.212 47.1451 14.6249 44.5397 14.6249C41.9068 14.6249 39.2736 15.2246 36.8476 16.424C32.0821 18.7801 26.4765 18.7182 21.699 16.3868C18.1822 14.6703 14.083 17.2311 14.083 21.1443V112.271C14.083 118.56 19.1815 123.658 25.4707 123.658H124.528C130.818 123.658 135.916 118.56 135.916 112.271V21.1443C135.916 17.2311 131.817 14.6703 128.3 16.3865ZM45.9123 34.5517C43.6743 34.5517 41.8603 32.7377 41.8603 30.4997C41.8603 28.2617 43.6743 26.4476 45.9123 26.4476C48.1503 26.4476 49.9644 28.2617 49.9644 30.4997C49.9644 32.7377 48.1503 34.5517 45.9123 34.5517ZM104.087 34.5517C101.849 34.5517 100.035 32.7377 100.035 30.4997C100.035 28.2617 101.849 26.4476 104.087 26.4476C106.325 26.4476 108.139 28.2617 108.139 30.4997C108.139 32.7377 106.325 34.5517 104.087 34.5517Z" fill="url(#paint1_linear_5335_1467)"/>
<path d="M128.3 42.7281L128.159 42.7969C123.392 45.1234 117.813 45.0967 113.069 42.7242C108.263 40.379 102.646 40.379 97.8443 42.7242L97.8404 42.7281C93.0346 45.0733 87.4181 45.0733 82.6122 42.7281L82.6084 42.7242C77.8061 40.379 72.1899 40.379 67.384 42.7242L67.3802 42.7281C62.5778 45.0733 56.9578 45.0733 52.1558 42.7281H52.152C49.7508 41.5535 47.1451 40.9661 44.5397 40.9661C41.9068 40.9661 39.2736 41.5658 36.8476 42.7653C32.0821 45.1213 26.4765 45.0595 21.699 42.7281C18.1822 41.0115 14.083 43.5724 14.083 47.4856V138.612C14.083 144.901 19.1815 150 25.4707 150H124.528C130.818 150 135.916 144.901 135.916 138.612V47.4856C135.916 43.5724 131.817 41.0115 128.3 42.7281ZM45.9123 60.893C43.6743 60.893 41.8603 59.0789 41.8603 56.8409C41.8603 54.603 43.6743 52.7889 45.9123 52.7889C48.1503 52.7889 49.9644 54.603 49.9644 56.8409C49.9644 59.0789 48.1503 60.893 45.9123 60.893ZM104.087 60.893C101.849 60.893 100.035 59.0789 100.035 56.8409C100.035 54.603 101.849 52.7889 104.087 52.7889C106.325 52.7889 108.139 54.603 108.139 56.8409C108.139 59.0789 106.325 60.893 104.087 60.893Z" fill="url(#paint2_linear_5335_1467)"/>
<path d="M135.917 138.612V84.8617L108.128 57.073C108.007 59.202 106.247 60.8927 104.088 60.8927C103.105 60.8927 102.205 60.5429 101.504 59.9617V77.3939C101.504 85.9257 97.4471 93.5236 91.1661 98.3746L49.9164 57.4322C49.6296 59.3889 47.9488 60.8927 45.9124 60.8927C44.7259 60.8927 43.6621 60.3797 42.9209 59.567V77.3936C42.9209 86.6318 46.8514 94.965 53.1218 100.823L102.298 150H124.529C130.818 150 135.917 144.902 135.917 138.612Z" fill="url(#paint3_linear_5335_1467)"/>
<path d="M75.0001 109.473C57.3115 109.473 42.9209 95.0824 42.9209 77.3938V56.8582C42.9209 55.3183 44.1689 54.0706 45.7085 54.0706C47.248 54.0706 48.4961 55.3186 48.4961 56.8582V77.3938C48.4961 92.0077 60.3856 103.897 74.9998 103.897C89.614 103.897 101.504 92.0074 101.504 77.3938V56.8582C101.504 55.3183 102.752 54.0706 104.291 54.0706C105.831 54.0706 107.079 55.3186 107.079 56.8582V77.3938C107.079 95.0824 92.6884 109.473 75.0001 109.473Z" fill="url(#paint4_linear_5335_1467)"/>
<path d="M14.084 108.115V138.612C14.084 144.902 19.1825 150 25.4717 150H124.529C130.819 150 135.917 144.901 135.917 138.612V108.115H14.084Z" fill="url(#paint5_linear_5335_1467)"/>
<defs>
<linearGradient id="paint0_linear_5335_1467" x1="74.999" y1="3.77614" x2="74.999" y2="35.6643" gradientUnits="userSpaceOnUse">
<stop stop-color="#FFB92D"/>
<stop offset="1" stop-color="#F59500"/>
</linearGradient>
<linearGradient id="paint1_linear_5335_1467" x1="74.998" y1="19.9057" x2="74.998" y2="63.84" gradientUnits="userSpaceOnUse">
<stop stop-color="#F90531"/>
<stop offset="1" stop-color="#232F2C"/>
</linearGradient>
<linearGradient id="paint2_linear_5335_1467" x1="76.7423" y1="95.4837" x2="164.623" y2="95.4837" gradientUnits="userSpaceOnUse">
<stop stop-color="#DF1F4D"/>
<stop offset="1" stop-color="#8B0808"/>
</linearGradient>
<linearGradient id="paint3_linear_5335_1467" x1="131.279" y1="129.618" x2="25.117" y2="23.4588" gradientUnits="userSpaceOnUse">
<stop stop-color="#BA2F61" stop-opacity="0"/>
<stop offset="1" stop-color="#465551"/>
</linearGradient>
<linearGradient id="paint4_linear_5335_1467" x1="74.9984" y1="54.0727" x2="74.9984" y2="109.474" gradientUnits="userSpaceOnUse">
<stop stop-color="#FFB92D"/>
<stop offset="1" stop-color="#F59500"/>
</linearGradient>
<linearGradient id="paint5_linear_5335_1467" x1="128.553" y1="117.71" x2="-2.72618" y2="143.089" gradientUnits="userSpaceOnUse">
<stop stop-color="#DA1443" stop-opacity="0"/>
<stop offset="1" stop-color="#6C807B"/>
</linearGradient>
</defs>
</svg>
