<svg width="165" height="46" viewBox="0 0 165 46" fill="none" xmlns="http://www.w3.org/2000/svg">
<path d="M59.4756 36V14.6719H65.4961C67.3516 14.6719 68.9922 15.082 70.418 15.9023C71.8438 16.7227 72.9424 17.8896 73.7139 19.4033C74.4951 20.917 74.8906 22.6553 74.9004 24.6182V25.9805C74.9004 27.9922 74.5098 29.7549 73.7285 31.2686C72.957 32.7822 71.8486 33.9443 70.4033 34.7549C68.9678 35.5654 67.293 35.9805 65.3789 36H59.4756ZM62.2881 16.9863V33.7002H65.2471C67.415 33.7002 69.0996 33.0264 70.3008 31.6787C71.5117 30.3311 72.1172 28.4121 72.1172 25.9219V24.6768C72.1172 22.2549 71.5459 20.375 70.4033 19.0371C69.2705 17.6895 67.6592 17.0059 65.5693 16.9863H62.2881ZM85.3154 36.293C83.167 36.293 81.4189 35.5898 80.0713 34.1836C78.7236 32.7676 78.0498 30.8779 78.0498 28.5146V28.0166C78.0498 26.4443 78.3477 25.043 78.9434 23.8125C79.5488 22.5723 80.3887 21.6055 81.4629 20.9121C82.5469 20.209 83.7188 19.8574 84.9785 19.8574C87.0391 19.8574 88.6406 20.5361 89.7832 21.8936C90.9258 23.251 91.4971 25.1943 91.4971 27.7236V28.8516H80.7598C80.7988 30.4141 81.2529 31.6787 82.1221 32.6455C83.001 33.6025 84.1143 34.0811 85.4619 34.0811C86.4189 34.0811 87.2295 33.8857 87.8936 33.4951C88.5576 33.1045 89.1387 32.5869 89.6367 31.9424L91.292 33.2314C89.9639 35.2725 87.9717 36.293 85.3154 36.293ZM84.9785 22.084C83.8848 22.084 82.9668 22.4844 82.2246 23.2852C81.4824 24.0762 81.0234 25.1895 80.8477 26.625H88.7871V26.4199C88.709 25.043 88.3379 23.9785 87.6738 23.2266C87.0098 22.4648 86.1113 22.084 84.9785 22.084ZM103.875 31.7959C103.875 31.0635 103.597 30.4971 103.04 30.0967C102.493 29.6865 101.531 29.335 100.154 29.042C98.7871 28.749 97.6982 28.3975 96.8877 27.9873C96.0869 27.5771 95.4912 27.0889 95.1006 26.5225C94.7197 25.9561 94.5293 25.2822 94.5293 24.501C94.5293 23.2021 95.0762 22.1035 96.1699 21.2051C97.2734 20.3066 98.6797 19.8574 100.389 19.8574C102.186 19.8574 103.641 20.3213 104.754 21.249C105.877 22.1768 106.438 23.3633 106.438 24.8086H103.714C103.714 24.0664 103.396 23.4268 102.762 22.8896C102.137 22.3525 101.346 22.084 100.389 22.084C99.4023 22.084 98.6309 22.2988 98.0742 22.7285C97.5176 23.1582 97.2393 23.7197 97.2393 24.4131C97.2393 25.0674 97.498 25.5605 98.0156 25.8926C98.5332 26.2246 99.4658 26.542 100.813 26.8447C102.171 27.1475 103.27 27.5088 104.109 27.9287C104.949 28.3486 105.569 28.8564 105.97 29.4521C106.38 30.0381 106.585 30.7559 106.585 31.6055C106.585 33.0215 106.019 34.1592 104.886 35.0186C103.753 35.8682 102.283 36.293 100.477 36.293C99.207 36.293 98.084 36.0684 97.1074 35.6191C96.1309 35.1699 95.3643 34.5449 94.8076 33.7441C94.2607 32.9336 93.9873 32.0596 93.9873 31.1221H96.6973C96.7461 32.0303 97.1074 32.7529 97.7812 33.29C98.4648 33.8174 99.3633 34.0811 100.477 34.0811C101.502 34.0811 102.322 33.876 102.938 33.4658C103.562 33.0459 103.875 32.4893 103.875 31.7959ZM119.9 36C119.744 35.6875 119.617 35.1309 119.52 34.3301C118.26 35.6387 116.756 36.293 115.008 36.293C113.445 36.293 112.161 35.8535 111.155 34.9746C110.159 34.0859 109.661 32.9629 109.661 31.6055C109.661 29.9551 110.286 28.6758 111.536 27.7676C112.796 26.8496 114.563 26.3906 116.839 26.3906H119.476V25.1455C119.476 24.1982 119.192 23.4463 118.626 22.8896C118.06 22.3232 117.225 22.04 116.121 22.04C115.154 22.04 114.344 22.2842 113.689 22.7725C113.035 23.2607 112.708 23.8516 112.708 24.5449H109.983C109.983 23.7539 110.262 22.9922 110.818 22.2598C111.385 21.5176 112.146 20.9316 113.104 20.502C114.07 20.0723 115.13 19.8574 116.282 19.8574C118.108 19.8574 119.539 20.3164 120.574 21.2344C121.609 22.1426 122.146 23.3975 122.186 24.999V32.2939C122.186 33.749 122.371 34.9062 122.742 35.7656V36H119.9ZM115.403 33.9346C116.253 33.9346 117.059 33.7148 117.82 33.2754C118.582 32.8359 119.134 32.2646 119.476 31.5615V28.3096H117.352C114.031 28.3096 112.371 29.2812 112.371 31.2246C112.371 32.0742 112.654 32.7383 113.221 33.2168C113.787 33.6953 114.515 33.9346 115.403 33.9346ZM126.492 34.5791C126.492 34.1104 126.629 33.7197 126.902 33.4072C127.186 33.0947 127.605 32.9385 128.162 32.9385C128.719 32.9385 129.139 33.0947 129.422 33.4072C129.715 33.7197 129.861 34.1104 129.861 34.5791C129.861 35.0283 129.715 35.4043 129.422 35.707C129.139 36.0098 128.719 36.1611 128.162 36.1611C127.605 36.1611 127.186 36.0098 126.902 35.707C126.629 35.4043 126.492 35.0283 126.492 34.5791Z" fill="black"/>
<path d="M138.768 28.6611L137.068 30.4336V36H134.358V13.5H137.068V27.1084L138.519 25.3652L143.455 20.1504H146.751L140.584 26.7715L147.469 36H144.29L138.768 28.6611ZM159.334 34.4326C158.279 35.6729 156.731 36.293 154.69 36.293C153.001 36.293 151.712 35.8047 150.823 34.8281C149.944 33.8418 149.5 32.3867 149.49 30.4629V20.1504H152.2V30.3896C152.2 32.792 153.177 33.9932 155.13 33.9932C157.2 33.9932 158.577 33.2217 159.261 31.6787V20.1504H161.971V36H159.393L159.334 34.4326Z" fill="#29A867"/>
<path d="M10 13.5H8.5V15V37C8.5 41.1421 11.8579 44.5 16 44.5H37C41.1421 44.5 44.5 41.1421 44.5 37V15V13.5H43H10Z" stroke="black" stroke-width="3"/>
<rect x="22" y="25" width="9" height="14" stroke="#29A867" stroke-width="2"/>
<path d="M43.2857 2H9.71429L3 17H50L43.2857 2Z" fill="white" stroke="black" stroke-width="3"/>
<circle cx="28" cy="32" r="1" fill="#258C67"/>
</svg>
