<svg width="25" height="25" viewBox="0 0 25 25" fill="none" xmlns="http://www.w3.org/2000/svg">
<path d="M0 3.15C0 3.01072 0 2.94109 0.00231289 2.88222C0.0637769 1.31786 1.31786 0.0637769 2.88222 0.00231289C2.94109 0 3.01072 0 3.15 0H21.85C21.9893 0 22.0589 0 22.1178 0.00231289C23.6821 0.0637769 24.9362 1.31786 24.9977 2.88222C25 2.94109 25 3.01072 25 3.15V21.85C25 21.9893 25 22.0589 24.9977 22.1178C24.9362 23.6821 23.6821 24.9362 22.1178 24.9977C22.0589 25 21.9893 25 21.85 25H3.15C3.01072 25 2.94109 25 2.88222 24.9977C1.31786 24.9362 0.0637769 23.6821 0.00231289 22.1178C0 22.0589 0 21.9893 0 21.85V3.15Z" fill="#FF7158"/>
<path d="M6.29289 10.7929L6 11.0858V11.5V19.5V20.5H7H18H19V19.5V11.5V11.0858L18.7071 10.7929L13.2071 5.29289L12.5 4.58579L11.7929 5.29289L6.29289 10.7929Z" stroke="white" stroke-width="2"/>
<path d="M6.5 11.5H18.5" stroke="white"/>
</svg>
